# xmcd
#
# Track frame offsets:
#	150
#	12551
#	21996
#	31445
#	41355
#	51667
#	61578
#	71204
#	80448
#	89003
#	100264
#	112386
#
# Disc length: 1632 seconds
#
# Revision: 1
# Processed by: cddbd v1.5.2PL0 Copyright (c) Steve Scherf et al.
# Submitted via: audiograbber 1.83.01
#
DISCID=ab065e0c
DTITLE=Chet Atkins - Chet Atkins' Workshop
DYEAR=1961
DGENRE=Country Rock
TTITLE0=Lambeth Walk
TTITLE1=Theme From ' A Summer Place'
TTITLE2=Whispering
TTITLE3=In A Little Spanish Town
TTITLE4=Sleep
TTITLE5=Marie
TTITLE6=Hot Mocking Bird
TTITLE7=Lullaby Of Birdland
TTITLE8=Tammy
TTITLE9=Goofus
TTITLE10=Bonita
TTITLE11=Whatever Will Be, Will Be (Que Será,Será)
EXTD=
EXTT0=
EXTT1=
EXTT2=
EXTT3=
EXTT4=
EXTT5=
EXTT6=
EXTT7=
EXTT8=
EXTT9=
EXTT10=
EXTT11=
PLAYORDER=
